<svg width="20" height="20" viewBox="0 0 20 20" fill="none" xmlns="http://www.w3.org/2000/svg">
<path opacity="0.5" d="M14 5C14 7.21022 12.2102 9 10 9C7.78978 9 6 7.21022 6 5C6 2.78978 7.78978 1 10 1C12.2102 1 14 2.78978 14 5ZM1 17.5C1 17.036 1.22448 16.5556 1.77139 16.0509C2.3251 15.5398 3.13993 15.0741 4.12031 14.6814C6.08267 13.8953 8.45626 13.5 10 13.5C11.5437 13.5 13.9173 13.8953 15.8797 14.6814C16.8601 15.0741 17.6749 15.5398 18.2286 16.0509C18.7755 16.5556 19 17.036 19 17.5V18.75C19 18.8852 18.8852 19 18.75 19H1.25C1.11478 19 1 18.8852 1 18.75V17.5Z" stroke="#575757" stroke-width="2"/>
</svg>
