<svg width="673" height="316" viewBox="0 0 673 316" fill="none" xmlns="http://www.w3.org/2000/svg">
<path opacity="0.3" d="M664.669 233.543C656.686 250.013 642.864 262.615 627.051 272.204C620.565 276.104 613.821 279.557 606.865 282.538C602.314 284.509 597.701 286.307 593.026 287.932C569.836 296.03 545.298 299.987 520.717 300C516.7 300.004 512.683 299.901 508.667 299.691C507.514 299.631 506.362 299.563 505.209 299.487C499.137 299.085 493.085 298.439 487.052 297.551C486.934 297.534 486.811 297.517 486.692 297.496C474.074 295.632 461.634 292.717 449.502 288.78C447.15 288.017 444.813 287.216 442.489 286.377C441.862 286.157 441.235 285.924 440.612 285.695C437.993 284.725 435.395 283.706 432.816 282.64C430.646 281.746 428.489 280.818 426.345 279.856C424.235 278.903 422.139 277.918 420.057 276.903C416.651 275.233 413.281 273.483 409.947 271.653C407.375 270.229 404.837 268.752 402.333 267.221C396.123 263.427 390.113 259.314 384.329 254.899C382.287 253.339 380.272 251.74 378.287 250.102C376.91 248.967 375.545 247.806 374.159 246.678C371.236 244.301 368.227 242.043 364.871 240.352C363.859 239.842 362.821 239.384 361.761 238.979C357.802 237.514 353.63 236.703 349.41 236.577C342.211 236.293 334.779 237.632 327.817 239.615C324.508 240.551 321.236 241.628 317.965 242.729C316.622 243.183 315.28 243.637 313.94 244.094C311.169 245.039 308.398 245.962 305.601 246.806C304.669 247.085 303.737 247.361 302.8 247.619C299.061 248.695 295.251 249.505 291.398 250.043C282.792 251.137 274.053 250.375 265.766 247.81L265.059 247.589C263.873 247.217 262.699 246.81 261.529 246.365L260.822 246.094C259.695 245.657 258.589 245.19 257.504 244.691L256.796 244.369C255.754 243.882 254.733 243.373 253.729 242.835C253.644 242.793 253.563 242.75 253.478 242.704C253.089 242.5 252.703 242.28 252.322 242.073C246.17 238.629 240.575 234.273 235.729 229.153C235.589 229.013 235.458 228.869 235.305 228.729C234.631 228.001 233.97 227.259 233.33 226.501C233.093 226.221 232.856 225.941 232.623 225.653C231.864 224.725 231.131 223.778 230.424 222.81C230.318 222.67 230.216 222.526 230.114 222.386C227.221 218.381 224.821 214.042 222.966 209.463C222.907 209.323 222.852 209.179 222.801 209.039C222.237 207.586 221.722 206.107 221.254 204.603C221.063 203.975 220.881 203.331 220.72 202.704C220.665 202.518 220.614 202.327 220.568 202.141C218.25 192.937 218 183.365 218 173.849V170.522C218.068 155.128 218.305 139.472 220.576 124.29C220.585 124.184 220.601 124.08 220.623 123.976C221.386 118.866 222.42 113.799 223.72 108.798C225.086 103.552 226.829 98.412 228.936 93.4173C234.161 81.1292 241.758 69.9472 250.195 59.5829C271.423 33.5196 299.292 11.6088 331.91 3.43512C367.058 -5.39106 406.121 3.06648 434.472 25.6383C442.833 32.2908 450.371 40.1297 459.637 45.4093C459.951 45.5915 460.269 45.7694 460.591 45.9432C461.815 46.6084 463.067 47.2129 464.345 47.7567C466.039 48.4802 467.782 49.082 469.561 49.5575C475.192 51.0702 481.078 51.2058 486.692 49.3287C487.15 49.1719 487.608 49.0067 488.061 48.8245C489.023 48.4431 489.942 48.0872 490.828 47.7567C496.87 45.5067 501.523 44.4135 508.866 44.8076C526.304 45.79 543.496 49.3881 559.865 55.4812C560.526 55.7227 561.187 55.9727 561.844 56.2227C604.517 72.5573 641.208 104.993 660.267 146.675C660.775 147.777 661.265 148.887 661.737 150.006C673.106 176.539 677.207 207.67 664.669 233.543Z" fill="#F2F2F2"/>
<path d="M579.771 78.7522H535.146V69.1003C535.146 68.488 534.902 67.9008 534.469 67.4678C534.036 67.0349 533.449 66.7917 532.837 66.7917H519.732V56.5105C519.732 56.125 519.579 55.7554 519.307 55.4828C519.034 55.2102 518.665 55.0571 518.279 55.0571H501.399C501.013 55.0571 500.644 55.2102 500.371 55.4828C500.099 55.7554 499.945 56.125 499.945 56.5105V66.7951H484.539C483.927 66.7951 483.34 67.0384 482.907 67.4713C482.474 67.9043 482.231 68.4915 482.231 69.1038V78.7557H439.677C439.553 78.7566 439.434 78.8064 439.347 78.8944C439.26 78.9823 439.211 79.1012 439.211 79.225V207.352C439.211 207.476 439.26 207.595 439.347 207.683C439.434 207.771 439.553 207.821 439.677 207.822H467.958C468.082 207.822 468.202 207.772 468.29 207.684C468.378 207.596 468.427 207.477 468.427 207.352V190.114C468.428 189.99 468.478 189.871 468.566 189.783C468.654 189.695 468.772 189.645 468.897 189.644H480.843C480.968 189.645 481.086 189.695 481.174 189.783C481.262 189.871 481.312 189.99 481.313 190.114V207.352C481.313 207.476 481.362 207.595 481.449 207.683C481.536 207.771 481.655 207.821 481.779 207.822H537.663C537.787 207.821 537.906 207.771 537.994 207.683C538.082 207.595 538.131 207.476 538.132 207.352V190.114C538.132 189.99 538.181 189.871 538.268 189.783C538.356 189.695 538.474 189.645 538.598 189.644H550.545C550.669 189.644 550.789 189.694 550.877 189.782C550.965 189.87 551.014 189.989 551.014 190.114V207.352C551.015 207.476 551.065 207.595 551.153 207.683C551.24 207.771 551.359 207.821 551.483 207.822H579.765C579.889 207.821 580.008 207.771 580.095 207.683C580.183 207.595 580.233 207.476 580.234 207.352V79.2216C580.233 79.0985 580.184 78.9807 580.098 78.8931C580.012 78.8054 579.894 78.7549 579.771 78.7522ZM463.365 183.657C463.365 183.781 463.316 183.899 463.228 183.987C463.141 184.074 463.023 184.123 462.899 184.123H445.431C445.37 184.124 445.309 184.112 445.252 184.089C445.195 184.065 445.143 184.031 445.099 183.988C445.056 183.945 445.021 183.893 444.998 183.836C444.974 183.78 444.962 183.719 444.962 183.657V177.708C444.962 177.647 444.974 177.586 444.997 177.529C445.021 177.472 445.056 177.42 445.099 177.376C445.143 177.333 445.195 177.298 445.251 177.275C445.308 177.251 445.369 177.239 445.431 177.239H462.909C463.033 177.24 463.152 177.29 463.239 177.378C463.326 177.465 463.375 177.584 463.375 177.708L463.365 183.657ZM463.365 168.241C463.365 168.302 463.354 168.363 463.33 168.42C463.307 168.477 463.273 168.529 463.23 168.572C463.186 168.616 463.135 168.651 463.078 168.674C463.021 168.698 462.961 168.71 462.899 168.71H445.431C445.369 168.71 445.308 168.699 445.251 168.675C445.194 168.652 445.142 168.617 445.098 168.574C445.054 168.53 445.02 168.478 444.997 168.421C444.973 168.364 444.961 168.302 444.962 168.241V162.278C444.961 162.216 444.973 162.155 444.997 162.098C445.02 162.04 445.054 161.988 445.098 161.945C445.142 161.901 445.194 161.867 445.251 161.843C445.308 161.82 445.369 161.808 445.431 161.808H462.909C462.971 161.808 463.032 161.82 463.089 161.844C463.145 161.868 463.197 161.902 463.24 161.946C463.283 161.99 463.318 162.041 463.341 162.098C463.364 162.155 463.376 162.216 463.375 162.278L463.365 168.241ZM463.365 152.828C463.365 152.951 463.316 153.07 463.229 153.158C463.141 153.246 463.023 153.296 462.899 153.297H445.431C445.369 153.297 445.308 153.285 445.251 153.261C445.195 153.238 445.143 153.203 445.099 153.159C445.056 153.116 445.021 153.064 444.997 153.007C444.974 152.95 444.962 152.889 444.962 152.828V146.861C444.962 146.799 444.974 146.738 444.997 146.682C445.021 146.625 445.056 146.573 445.099 146.529C445.143 146.486 445.195 146.451 445.251 146.428C445.308 146.404 445.369 146.392 445.431 146.392H462.909C463.033 146.393 463.152 146.443 463.239 146.53C463.326 146.618 463.375 146.737 463.375 146.861L463.365 152.828ZM463.365 137.411C463.365 137.472 463.354 137.533 463.33 137.59C463.307 137.647 463.273 137.699 463.23 137.743C463.186 137.786 463.135 137.821 463.078 137.845C463.021 137.868 462.961 137.88 462.899 137.88H445.431C445.369 137.881 445.308 137.869 445.251 137.846C445.194 137.822 445.142 137.788 445.098 137.744C445.054 137.7 445.02 137.648 444.997 137.591C444.973 137.534 444.961 137.473 444.962 137.411V131.465C444.961 131.404 444.973 131.342 444.997 131.285C445.02 131.228 445.054 131.176 445.098 131.133C445.142 131.089 445.194 131.054 445.251 131.031C445.308 131.007 445.369 130.996 445.431 130.996H462.909C462.971 130.996 463.032 131.008 463.089 131.032C463.145 131.055 463.197 131.09 463.24 131.134C463.283 131.177 463.318 131.229 463.341 131.286C463.364 131.343 463.376 131.404 463.375 131.465L463.365 137.411ZM463.365 121.998C463.365 122.122 463.316 122.241 463.229 122.329C463.141 122.416 463.023 122.466 462.899 122.467H445.431C445.369 122.467 445.308 122.455 445.251 122.431C445.195 122.408 445.143 122.373 445.099 122.33C445.056 122.286 445.021 122.234 444.997 122.177C444.974 122.121 444.962 122.059 444.962 121.998V116.031C444.962 115.97 444.974 115.909 444.998 115.852C445.021 115.796 445.056 115.744 445.099 115.701C445.143 115.658 445.195 115.623 445.252 115.6C445.309 115.577 445.37 115.565 445.431 115.566H462.909C463.033 115.566 463.152 115.615 463.239 115.702C463.326 115.789 463.375 115.908 463.375 116.031L463.365 121.998ZM463.365 106.585C463.365 106.708 463.316 106.827 463.228 106.914C463.141 107.002 463.023 107.051 462.899 107.051H445.431C445.37 107.051 445.309 107.039 445.252 107.016C445.195 106.993 445.143 106.959 445.099 106.915C445.056 106.872 445.021 106.821 444.998 106.764C444.974 106.707 444.962 106.646 444.962 106.585V100.618C444.962 100.557 444.974 100.496 444.997 100.439C445.021 100.382 445.056 100.33 445.099 100.286C445.143 100.243 445.195 100.208 445.251 100.185C445.308 100.161 445.369 100.149 445.431 100.149H462.909C463.033 100.15 463.152 100.2 463.239 100.288C463.326 100.376 463.375 100.495 463.375 100.618L463.365 106.585ZM463.365 91.1682C463.365 91.2297 463.354 91.2906 463.33 91.3476C463.307 91.4045 463.273 91.4562 463.23 91.4999C463.186 91.5435 463.135 91.5781 463.078 91.6018C463.021 91.6254 462.961 91.6376 462.899 91.6376H445.431C445.369 91.638 445.308 91.6262 445.251 91.6028C445.194 91.5794 445.142 91.5448 445.098 91.5011C445.054 91.4574 445.02 91.4055 444.997 91.3484C444.973 91.2912 444.961 91.23 444.962 91.1682V85.2227C444.961 85.1609 444.973 85.0997 444.997 85.0425C445.02 84.9854 445.054 84.9334 445.098 84.8898C445.142 84.8461 445.194 84.8115 445.251 84.7881C445.308 84.7647 445.369 84.7528 445.431 84.7533H462.909C462.971 84.7533 463.032 84.7655 463.089 84.7891C463.145 84.8127 463.197 84.8474 463.24 84.891C463.283 84.9346 463.318 84.9864 463.341 85.0433C463.364 85.1003 463.376 85.1612 463.375 85.2227L463.365 91.1682ZM504.778 183.654C504.778 183.715 504.766 183.776 504.742 183.833C504.719 183.89 504.684 183.941 504.641 183.984C504.597 184.028 504.545 184.062 504.488 184.085C504.431 184.108 504.37 184.12 504.309 184.12H486.841C486.717 184.12 486.598 184.071 486.51 183.983C486.422 183.896 486.373 183.778 486.372 183.654V177.708C486.372 177.584 486.422 177.465 486.51 177.377C486.598 177.289 486.717 177.24 486.841 177.239H504.309C504.371 177.239 504.432 177.251 504.489 177.275C504.545 177.298 504.597 177.333 504.641 177.376C504.684 177.42 504.719 177.472 504.743 177.529C504.766 177.586 504.778 177.647 504.778 177.708V183.654ZM504.778 168.237C504.779 168.299 504.767 168.36 504.743 168.417C504.72 168.474 504.686 168.526 504.642 168.57C504.598 168.614 504.546 168.648 504.489 168.672C504.432 168.695 504.371 168.707 504.309 168.706H486.841C486.716 168.706 486.597 168.657 486.509 168.569C486.421 168.481 486.372 168.362 486.372 168.237V162.278C486.372 162.153 486.421 162.034 486.509 161.946C486.597 161.858 486.716 161.808 486.841 161.808H504.309C504.371 161.808 504.432 161.82 504.489 161.843C504.546 161.867 504.598 161.901 504.642 161.945C504.686 161.988 504.72 162.04 504.743 162.098C504.767 162.155 504.779 162.216 504.778 162.278V168.237ZM504.778 152.824C504.778 152.886 504.766 152.947 504.743 153.004C504.719 153.061 504.684 153.112 504.641 153.156C504.597 153.2 504.545 153.234 504.489 153.258C504.432 153.281 504.371 153.293 504.309 153.293H486.841C486.717 153.292 486.598 153.243 486.51 153.155C486.422 153.067 486.372 152.948 486.372 152.824V146.861C486.372 146.737 486.422 146.618 486.51 146.53C486.598 146.442 486.717 146.393 486.841 146.392H504.309C504.371 146.392 504.432 146.404 504.489 146.428C504.545 146.451 504.597 146.486 504.641 146.529C504.684 146.573 504.719 146.625 504.743 146.682C504.766 146.738 504.778 146.799 504.778 146.861V152.824ZM504.778 137.407C504.779 137.469 504.767 137.53 504.743 137.588C504.72 137.645 504.686 137.697 504.642 137.74C504.598 137.784 504.546 137.819 504.489 137.842C504.432 137.865 504.371 137.877 504.309 137.877H486.841C486.716 137.877 486.597 137.827 486.509 137.739C486.421 137.651 486.372 137.532 486.372 137.407V131.465C486.372 131.341 486.421 131.222 486.509 131.134C486.597 131.046 486.716 130.996 486.841 130.996H504.309C504.371 130.996 504.432 131.007 504.489 131.031C504.546 131.054 504.598 131.089 504.642 131.133C504.686 131.176 504.72 131.228 504.743 131.285C504.767 131.342 504.779 131.404 504.778 131.465V137.407ZM504.778 121.994C504.778 122.056 504.766 122.117 504.743 122.174C504.719 122.231 504.684 122.283 504.641 122.326C504.597 122.37 504.545 122.404 504.489 122.428C504.432 122.452 504.371 122.464 504.309 122.464H486.841C486.717 122.463 486.598 122.413 486.51 122.325C486.422 122.237 486.372 122.119 486.372 121.994V116.031C486.373 115.908 486.422 115.789 486.51 115.702C486.598 115.615 486.717 115.566 486.841 115.566H504.309C504.37 115.565 504.431 115.577 504.488 115.6C504.545 115.623 504.597 115.658 504.641 115.701C504.684 115.744 504.719 115.796 504.742 115.852C504.766 115.909 504.778 115.97 504.778 116.031V121.994ZM504.778 106.581C504.778 106.643 504.766 106.704 504.742 106.76C504.719 106.817 504.684 106.869 504.641 106.912C504.597 106.955 504.545 106.99 504.488 107.013C504.431 107.036 504.37 107.048 504.309 107.047H486.841C486.717 107.047 486.598 106.998 486.51 106.911C486.422 106.824 486.373 106.705 486.372 106.581V100.618C486.372 100.494 486.422 100.375 486.51 100.288C486.598 100.2 486.717 100.15 486.841 100.149H504.309C504.371 100.149 504.432 100.161 504.489 100.185C504.545 100.208 504.597 100.243 504.641 100.286C504.684 100.33 504.719 100.382 504.743 100.439C504.766 100.496 504.778 100.557 504.778 100.618V106.581ZM504.778 91.1647C504.779 91.2265 504.767 91.2877 504.743 91.3449C504.72 91.402 504.686 91.454 504.642 91.4976C504.598 91.5413 504.546 91.5759 504.489 91.5993C504.432 91.6227 504.371 91.6346 504.309 91.6341H486.841C486.716 91.6341 486.597 91.5846 486.509 91.4966C486.421 91.4086 486.372 91.2892 486.372 91.1647V85.2227C486.372 85.0982 486.421 84.9788 486.509 84.8908C486.597 84.8028 486.716 84.7533 486.841 84.7533H504.309C504.371 84.7528 504.432 84.7647 504.489 84.7881C504.546 84.8115 504.598 84.8461 504.642 84.8898C504.686 84.9334 504.72 84.9854 504.743 85.0425C504.767 85.0997 504.779 85.1609 504.778 85.2227V91.1647ZM533.077 183.65C533.077 183.712 533.065 183.773 533.041 183.829C533.017 183.886 532.983 183.938 532.939 183.981C532.895 184.024 532.844 184.058 532.787 184.082C532.73 184.105 532.669 184.117 532.607 184.116H515.139C515.016 184.116 514.897 184.067 514.809 183.98C514.721 183.893 514.671 183.774 514.67 183.65V177.708C514.671 177.584 514.721 177.465 514.809 177.377C514.896 177.289 515.015 177.24 515.139 177.239H532.607C532.732 177.239 532.851 177.288 532.939 177.376C533.027 177.464 533.077 177.584 533.077 177.708V183.65ZM533.077 168.234C533.077 168.295 533.065 168.357 533.042 168.414C533.019 168.471 532.984 168.523 532.94 168.567C532.897 168.61 532.845 168.645 532.788 168.668C532.73 168.692 532.669 168.703 532.607 168.703H515.139C515.015 168.703 514.896 168.654 514.808 168.566C514.719 168.478 514.67 168.358 514.67 168.234V162.278C514.67 162.153 514.719 162.034 514.808 161.946C514.896 161.858 515.015 161.808 515.139 161.808H532.607C532.669 161.808 532.73 161.82 532.788 161.843C532.845 161.867 532.897 161.901 532.94 161.945C532.984 161.988 533.019 162.04 533.042 162.098C533.065 162.155 533.077 162.216 533.077 162.278V168.234ZM533.077 152.821C533.077 152.945 533.027 153.064 532.939 153.152C532.851 153.24 532.732 153.29 532.607 153.29H515.139C515.015 153.289 514.896 153.239 514.809 153.151C514.721 153.064 514.671 152.945 514.67 152.821V146.861C514.671 146.737 514.721 146.618 514.809 146.53C514.896 146.442 515.015 146.393 515.139 146.392H532.607C532.732 146.392 532.851 146.441 532.939 146.529C533.027 146.617 533.077 146.737 533.077 146.861V152.821ZM533.077 137.404C533.077 137.466 533.065 137.527 533.042 137.584C533.019 137.641 532.984 137.693 532.94 137.737C532.897 137.781 532.845 137.815 532.788 137.839C532.73 137.862 532.669 137.874 532.607 137.873H515.139C515.015 137.873 514.896 137.824 514.808 137.736C514.719 137.648 514.67 137.528 514.67 137.404V131.465C514.67 131.341 514.719 131.222 514.808 131.134C514.896 131.046 515.015 130.996 515.139 130.996H532.607C532.669 130.996 532.73 131.007 532.788 131.031C532.845 131.054 532.897 131.089 532.94 131.133C532.984 131.176 533.019 131.228 533.042 131.285C533.065 131.342 533.077 131.404 533.077 131.465V137.404ZM533.077 121.991C533.077 122.115 533.027 122.235 532.939 122.323C532.851 122.411 532.732 122.46 532.607 122.46H515.139C515.015 122.459 514.896 122.41 514.809 122.322C514.721 122.234 514.671 122.115 514.67 121.991V116.031C514.671 115.908 514.721 115.789 514.809 115.702C514.897 115.615 515.016 115.566 515.139 115.566H532.607C532.669 115.565 532.73 115.577 532.787 115.6C532.844 115.623 532.895 115.658 532.939 115.701C532.983 115.744 533.017 115.796 533.041 115.852C533.065 115.909 533.077 115.97 533.077 116.031V121.991ZM533.077 106.578C533.077 106.639 533.065 106.7 533.041 106.757C533.017 106.814 532.983 106.865 532.939 106.908C532.895 106.952 532.844 106.986 532.787 107.009C532.73 107.032 532.669 107.044 532.607 107.044H515.139C515.016 107.044 514.897 106.995 514.809 106.907C514.721 106.82 514.671 106.702 514.67 106.578V100.618C514.671 100.494 514.721 100.375 514.809 100.288C514.896 100.2 515.015 100.15 515.139 100.149H532.607C532.732 100.149 532.851 100.198 532.939 100.286C533.027 100.375 533.077 100.494 533.077 100.618V106.578ZM533.077 91.1612C533.077 91.223 533.065 91.2843 533.042 91.3414C533.019 91.3986 532.984 91.4505 532.94 91.4942C532.897 91.5379 532.845 91.5724 532.788 91.5958C532.73 91.6193 532.669 91.6311 532.607 91.6306H515.139C515.015 91.6306 514.896 91.5812 514.808 91.4931C514.719 91.4051 514.67 91.2857 514.67 91.1612V85.2227C514.67 85.0982 514.719 84.9788 514.808 84.8908C514.896 84.8028 515.015 84.7533 515.139 84.7533H532.607C532.669 84.7528 532.73 84.7647 532.788 84.7881C532.845 84.8115 532.897 84.8461 532.94 84.8898C532.984 84.9334 533.019 84.9854 533.042 85.0425C533.065 85.0997 533.077 85.1609 533.077 85.2227V91.1612ZM574.49 183.647C574.489 183.771 574.439 183.889 574.351 183.976C574.263 184.064 574.145 184.113 574.021 184.113H556.553C556.491 184.113 556.43 184.101 556.373 184.078C556.316 184.055 556.265 184.021 556.221 183.977C556.177 183.934 556.143 183.883 556.119 183.826C556.096 183.769 556.083 183.708 556.083 183.647V177.708C556.083 177.584 556.133 177.464 556.221 177.376C556.309 177.288 556.428 177.239 556.553 177.239H574.021C574.145 177.24 574.264 177.289 574.352 177.377C574.439 177.465 574.489 177.584 574.49 177.708V183.647ZM574.49 168.23C574.49 168.355 574.441 168.474 574.353 168.562C574.265 168.65 574.145 168.7 574.021 168.7H556.553C556.491 168.7 556.43 168.688 556.373 168.665C556.315 168.641 556.264 168.607 556.22 168.563C556.176 168.519 556.142 168.467 556.118 168.41C556.095 168.353 556.083 168.292 556.083 168.23V162.278C556.083 162.216 556.095 162.155 556.118 162.098C556.142 162.04 556.176 161.988 556.22 161.945C556.264 161.901 556.315 161.867 556.373 161.843C556.43 161.82 556.491 161.808 556.553 161.808H574.021C574.145 161.808 574.265 161.858 574.353 161.946C574.441 162.034 574.49 162.153 574.49 162.278V168.23ZM574.49 152.817C574.489 152.941 574.439 153.06 574.352 153.148C574.264 153.236 574.145 153.286 574.021 153.286H556.553C556.428 153.286 556.309 153.237 556.221 153.149C556.133 153.061 556.083 152.942 556.083 152.817V146.861C556.083 146.737 556.133 146.617 556.221 146.529C556.309 146.441 556.428 146.392 556.553 146.392H574.021C574.145 146.393 574.264 146.442 574.352 146.53C574.439 146.618 574.489 146.737 574.49 146.861V152.817ZM574.49 137.401C574.49 137.525 574.441 137.644 574.353 137.732C574.265 137.82 574.145 137.87 574.021 137.87H556.553C556.431 137.869 556.314 137.82 556.228 137.735C556.142 137.649 556.092 137.533 556.09 137.411V131.465C556.09 131.404 556.102 131.342 556.125 131.285C556.149 131.228 556.183 131.176 556.227 131.133C556.27 131.089 556.322 131.054 556.38 131.031C556.437 131.007 556.498 130.996 556.56 130.996H574.028C574.152 130.996 574.272 131.046 574.36 131.134C574.448 131.222 574.497 131.341 574.497 131.465L574.49 137.401ZM574.49 121.987C574.489 122.112 574.439 122.23 574.352 122.318C574.264 122.406 574.145 122.456 574.021 122.457H556.553C556.428 122.457 556.309 122.407 556.221 122.319C556.133 122.231 556.083 122.112 556.083 121.987V116.031C556.083 115.97 556.096 115.909 556.119 115.852C556.143 115.796 556.177 115.744 556.221 115.701C556.265 115.658 556.316 115.623 556.373 115.6C556.43 115.577 556.491 115.565 556.553 115.566H574.021C574.145 115.566 574.263 115.615 574.351 115.702C574.439 115.789 574.489 115.908 574.49 116.031V121.987ZM574.49 106.574C574.489 106.698 574.439 106.817 574.351 106.904C574.263 106.991 574.145 107.04 574.021 107.04H556.553C556.491 107.041 556.43 107.029 556.373 107.006C556.316 106.983 556.265 106.948 556.221 106.905C556.177 106.862 556.143 106.81 556.119 106.753C556.096 106.697 556.083 106.636 556.083 106.574V100.618C556.083 100.494 556.133 100.375 556.221 100.286C556.309 100.198 556.428 100.149 556.553 100.149H574.021C574.145 100.15 574.264 100.2 574.352 100.288C574.439 100.375 574.489 100.494 574.49 100.618V106.574ZM574.49 91.1578C574.49 91.2194 574.478 91.2804 574.454 91.3374C574.431 91.3943 574.396 91.4461 574.353 91.4897C574.309 91.5332 574.257 91.5678 574.2 91.5914C574.143 91.615 574.082 91.6271 574.021 91.6271H556.553C556.431 91.6263 556.314 91.5777 556.228 91.4919C556.142 91.4062 556.092 91.2899 556.09 91.1682V85.2227C556.09 85.1609 556.102 85.0997 556.125 85.0425C556.149 84.9854 556.183 84.9334 556.227 84.8898C556.27 84.8461 556.322 84.8115 556.38 84.7881C556.437 84.7647 556.498 84.7528 556.56 84.7533H574.028C574.152 84.7533 574.272 84.8028 574.36 84.8908C574.448 84.9788 574.497 85.0982 574.497 85.2227L574.49 91.1578Z" fill="#F2F2F2"/>
<path d="M445.101 25.3823L439.705 28.8035L442.98 22.8441C442.052 22.1042 440.905 21.6943 439.719 21.6794H439.632C439.257 21.685 438.882 21.6571 438.512 21.5959L436.683 22.7537L437.465 21.3282C436.168 20.876 435.048 20.0238 434.267 18.8944L430.995 20.9805L433.06 17.222C431.148 14.9238 428.568 13.5156 425.727 13.5156C422.324 13.5156 419.292 15.5392 417.334 18.6927C416.755 19.6396 415.935 20.4156 414.958 20.941C413.98 21.4664 412.88 21.7225 411.771 21.6829H411.59C407.832 21.6829 404.786 25.9455 404.786 31.1991C404.786 36.4527 407.846 40.7189 411.604 40.7189C412.43 40.7146 413.242 40.5106 413.972 40.1243C415.251 39.5019 416.651 39.1653 418.073 39.1376C419.495 39.11 420.906 39.3921 422.209 39.9644C423.31 40.4571 424.503 40.7118 425.71 40.7118C426.917 40.7118 428.11 40.4571 429.211 39.9644C430.503 39.4041 431.901 39.1283 433.309 39.1559C434.717 39.1835 436.103 39.5138 437.372 40.1243C438.095 40.5073 438.9 40.7112 439.719 40.7189C443.477 40.7189 446.523 36.4562 446.523 31.1991C446.545 29.1715 446.056 27.1709 445.101 25.3823Z" fill="#F2F2F2"/>
<path d="M635.28 15.9212L632.582 17.6283L634.216 14.6556C633.753 14.2868 633.181 14.0825 632.589 14.0749H632.547C632.36 14.0786 632.172 14.0646 631.987 14.0332L631.076 14.6138L631.466 13.9185C630.82 13.6921 630.262 13.2689 629.87 12.7085L628.239 13.7516L629.282 11.8775C628.852 11.3119 628.3 10.8497 627.668 10.5249C627.036 10.2 626.339 10.0207 625.628 10C623.931 10 622.419 11.0118 621.456 12.5833C621.166 13.0561 620.756 13.4434 620.267 13.7055C619.778 13.9676 619.229 14.0951 618.674 14.0749H618.584C616.71 14.0749 615.19 16.1993 615.19 18.8209C615.19 21.4425 616.71 23.5669 618.584 23.5669C618.996 23.5655 619.402 23.4641 619.766 23.2713C620.404 22.9614 621.101 22.7937 621.81 22.7799C622.519 22.7661 623.223 22.9065 623.872 23.1913C624.422 23.4367 625.017 23.5635 625.619 23.5635C626.221 23.5635 626.817 23.4367 627.367 23.1913C628.011 22.9124 628.709 22.7751 629.411 22.7889C630.113 22.8027 630.805 22.9672 631.438 23.2713C631.799 23.4599 632.199 23.5589 632.606 23.5599C634.48 23.5599 636 21.4355 636 18.8139C636.005 17.8047 635.758 16.8102 635.28 15.9212Z" fill="#F2F2F2"/>
<path d="M567.721 47.189L564.557 49.1951L566.476 45.7182C565.934 45.2799 565.261 45.0352 564.564 45.0229H564.511C564.291 45.0259 564.072 45.0097 563.854 44.9742L562.783 45.6696L563.242 44.8316C562.483 44.5669 561.826 44.0693 561.365 43.4096L559.446 44.6265L560.659 42.4221C560.149 41.7628 559.498 41.2254 558.754 40.8489C558.01 40.4724 557.192 40.2663 556.358 40.2456C554.362 40.2456 552.582 41.4347 551.435 43.2844C551.094 43.8356 550.614 44.2868 550.042 44.5921C549.47 44.8974 548.828 45.0461 548.181 45.0229H548.073C545.868 45.0229 544.085 47.5228 544.085 50.5859C544.085 53.649 545.868 56.1663 548.073 56.1663C548.558 56.1655 549.035 56.0461 549.463 55.8186C550.214 55.4541 551.034 55.257 551.868 55.2408C552.702 55.2246 553.529 55.3897 554.293 55.7248C554.939 56.0124 555.639 56.1611 556.346 56.1611C557.053 56.1611 557.753 56.0124 558.399 55.7248C559.157 55.3964 559.977 55.2349 560.803 55.251C561.629 55.2672 562.442 55.4608 563.187 55.8186C563.616 56.0445 564.093 56.1638 564.578 56.1663C566.782 56.1663 568.569 53.6699 568.569 50.5859C568.575 49.4005 568.283 48.2326 567.721 47.189Z" fill="#F2F2F2"/>
<path d="M304.352 255.415L172.025 273.363L172.416 274.451L304.742 256.503L304.352 255.415Z" fill="#3F3D56"/>
<path d="M507.048 254.713L506.658 255.801L455.653 304.96L456.044 303.873L507.048 254.713Z" fill="#3F3D56"/>
<path d="M383.977 279.256H378.467V272.139H383.977V279.256ZM393.185 265.161H387.676V258.044H393.185V265.161Z" fill="#E6E6E6"/>
<path d="M332.55 309.314H327.041V302.197H332.55V309.314ZM357.965 294.574H352.456V287.457H357.965V294.574Z" fill="#E6E6E6"/>
<path d="M387.905 116.417C403.001 116.417 415.24 104.178 415.24 89.0813C415.24 73.9845 403.001 61.7461 387.905 61.7461C372.808 61.7461 360.569 73.9845 360.569 89.0813C360.569 104.178 372.808 116.417 387.905 116.417Z" fill="#248271"/>
<path d="M385.299 100.62L377.118 90.1001L381.876 86.3995L385.75 91.3805L398.836 77.5654L403.213 81.7117L385.299 100.62Z" fill="white"/>
<path d="M93.179 271.275H98.4149L100.907 251.079H93.179V271.275Z" fill="#FFB8B8"/>
<path d="M91.8436 276.351H108.727V276.137C108.725 274.395 108.032 272.724 106.8 271.492C105.568 270.26 103.898 269.567 102.155 269.565H91.8437L91.8436 276.351Z" fill="#2F2E41"/>
<path d="M25.6586 261.353L30.1469 264.05L42.6841 248.022L36.0601 244.042L25.6586 261.353Z" fill="#FFB8B8"/>
<path d="M36.3713 273.711L36.4812 273.528C37.3768 272.034 37.643 270.245 37.2215 268.554C36.8 266.864 35.7251 265.41 34.2328 264.511L25.3938 259.2L21.8994 265.016L36.3713 273.711Z" fill="#2F2E41"/>
<path d="M91.8178 267.107L91.9081 267.107C94.4552 267.099 97.0001 266.953 99.5314 266.668C100.496 266.573 101.543 266.47 102.804 266.366L102.847 266.358C103.707 266.102 103.731 258.034 103.366 230.415C103.18 216.269 102.968 200.236 103.22 190.025L103.222 189.925L103.147 189.859C93.8063 181.735 81.8113 178.689 69.3712 181.284L69.2789 181.303L69.2309 181.384C64.0849 190.091 56.315 202.633 48.801 214.763C31.552 242.606 26.6187 250.795 27.1594 251.413L27.2246 251.463C28.4025 252.052 29.2867 252.505 30.0386 252.891C32.5562 254.182 33.5983 254.716 39.1973 257.022L39.3356 257.079L39.4364 256.968C56.9382 237.79 71.5029 216.367 80.5117 196.563C81.5644 203.324 82.8421 212.152 84.1922 221.48C88.0745 248.304 90.6983 265.968 91.7546 267.043L91.8178 267.107Z" fill="#2F2E41"/>
<path d="M64.6341 104.383C62.8715 97.1053 61.3782 88.8967 64.7023 82.1937C67.0088 77.5429 75.5413 75.9767 80.4325 77.6522C85.3237 79.3277 88.8601 83.8735 90.4153 88.8299C91.9706 93.7862 91.7899 99.127 91.112 104.279C82.1165 104.107 73.1209 103.934 64.6341 104.383Z" fill="#2F2E41"/>
<path d="M79.8144 104.381C74.0211 104.381 69.3247 99.6845 69.3247 93.8911C69.3247 88.0978 74.0211 83.4014 79.8144 83.4014C85.6078 83.4014 90.3042 88.0978 90.3042 93.8911C90.3042 99.6845 85.6078 104.381 79.8144 104.381Z" fill="#FFB8B8"/>
<path d="M66.9907 91.7304C66.9573 89.9649 67.2792 88.2108 67.9372 86.5722C68.5952 84.9335 69.5758 83.4439 70.8209 82.1917C72.0659 80.9396 73.5499 79.9505 75.1848 79.2832C76.8196 78.6159 78.5719 78.284 80.3375 78.3073C82.1032 78.3306 83.8461 78.7085 85.4628 79.4187C87.0795 80.1288 88.5369 81.1567 89.7485 82.4413C90.9601 83.7258 91.9011 85.2408 92.5157 86.8962C93.1302 88.5516 93.4057 90.3136 93.3259 92.0776C84.3474 92.0966 75.369 92.1157 66.9907 91.7304Z" fill="#2F2E41"/>
<path d="M87.1022 192.088C76.6661 192.041 66.2988 193.777 56.447 197.22C56.1041 180.685 61.7968 164.119 72.0897 151.726L72.1667 151.634L72.1273 151.52C69.378 143.576 66.5363 135.365 63.9971 127.195L64.0356 127.058C65.8164 120.727 69.6389 114.329 75.721 107.499C76.3809 106.815 77.2759 106.408 78.2247 106.36C79.1736 106.312 80.1052 106.627 80.8307 107.24C91.6417 117.151 97.52 132 96.1715 145.993L96.1675 146.035L96.1793 146.074C100.942 162.209 102.671 170.497 104.196 177.809C105.309 183.142 106.272 187.761 108.207 194.36C101.273 192.851 94.1979 192.09 87.1022 192.088Z" fill="#3F3D56"/>
<path opacity="0.1" d="M71.7374 141.083L87.2307 174.813L96.0815 165.854L71.7374 141.083Z" fill="black"/>
<path d="M106.514 159.818L105.433 161.917C105.423 161.937 105.422 161.959 105.428 161.98C105.435 162.001 105.449 162.018 105.469 162.028L105.521 162.055L99.8936 172.989C99.7379 173.292 99.7088 173.644 99.8126 173.968C99.9165 174.292 100.145 174.561 100.447 174.717L107.279 178.233C107.429 178.31 107.593 178.357 107.761 178.371C107.929 178.385 108.098 178.366 108.258 178.314C108.418 178.263 108.567 178.18 108.696 178.071C108.824 177.963 108.93 177.829 109.007 177.68L109.007 177.68L114.437 167.129L114.475 167.148C114.489 167.155 114.504 167.157 114.519 167.152C114.534 167.147 114.546 167.137 114.553 167.123L115.168 165.929C115.171 165.922 115.174 165.915 115.174 165.907C115.175 165.899 115.174 165.892 115.172 165.885C115.169 165.877 115.166 165.87 115.161 165.865C115.156 165.859 115.15 165.854 115.143 165.851L115.105 165.831L115.337 165.381L115.375 165.401C115.389 165.408 115.406 165.409 115.421 165.404C115.437 165.399 115.449 165.389 115.457 165.374L116.063 164.196C116.07 164.182 116.072 164.165 116.067 164.15C116.062 164.134 116.051 164.122 116.037 164.114L115.999 164.095L116.315 163.48L116.354 163.5C116.366 163.507 116.381 163.508 116.395 163.504C116.408 163.499 116.42 163.49 116.426 163.477L116.426 163.477L116.757 162.834C116.764 162.821 116.765 162.806 116.761 162.793C116.756 162.779 116.747 162.768 116.734 162.761L116.695 162.741L117.365 161.439C117.521 161.137 117.55 160.785 117.446 160.461C117.343 160.137 117.114 159.867 116.812 159.712L109.98 156.195C109.677 156.04 109.325 156.011 109.001 156.114C108.677 156.218 108.408 156.446 108.252 156.749L106.677 159.81L106.624 159.783C106.605 159.773 106.582 159.771 106.562 159.778C106.541 159.784 106.524 159.799 106.514 159.818Z" fill="#3F3D56"/>
<path d="M108.682 157.256L100.391 173.365C100.293 173.557 100.274 173.78 100.34 173.986C100.406 174.191 100.551 174.362 100.743 174.461L107.283 177.827C107.474 177.926 107.697 177.945 107.903 177.879C108.108 177.814 108.279 177.669 108.378 177.478L108.379 177.476L116.67 161.367C116.719 161.271 116.748 161.168 116.757 161.061C116.766 160.955 116.754 160.847 116.721 160.746C116.689 160.644 116.636 160.549 116.567 160.468C116.498 160.386 116.414 160.319 116.319 160.27L116.318 160.27L115.34 159.766L115.275 159.892C115.235 159.97 115.179 160.04 115.112 160.097C115.045 160.154 114.967 160.197 114.884 160.224C114.8 160.25 114.711 160.261 114.624 160.253C114.536 160.246 114.451 160.222 114.372 160.181L111.046 158.469C110.888 158.388 110.769 158.247 110.715 158.078C110.66 157.909 110.676 157.725 110.757 157.567L110.822 157.441L109.778 156.904C109.587 156.805 109.363 156.787 109.158 156.853C108.952 156.918 108.781 157.063 108.682 157.255L108.682 157.256Z" fill="#248271"/>
<path d="M106.279 176.935C105.653 176.892 105.043 176.711 104.494 176.407C103.945 176.102 103.47 175.681 103.101 175.173C102.732 174.665 102.479 174.082 102.36 173.466C102.241 172.849 102.259 172.214 102.412 171.605L89.6457 163.241L96.9262 160.096L107.933 168.521C108.939 168.845 109.791 169.528 110.327 170.439C110.864 171.349 111.047 172.425 110.843 173.463C110.64 174.5 110.062 175.426 109.221 176.066C108.38 176.706 107.333 177.016 106.279 176.935Z" fill="#FFB8B8"/>
<path d="M93.995 170.91L94.1559 170.796C97.1942 168.56 100.567 166.247 103.829 164.011L104.025 163.877L103.871 163.696C96.9085 155.551 89.9389 147.042 83.1975 138.812C83.2027 138.799 83.207 138.789 83.2104 138.782L83.1469 138.75L83.12 138.717L83.1056 138.729L83.065 138.708L83.2487 138.722L85.3265 122.428C87.2033 119.868 87.5627 114.785 85.1031 111.236C82.5555 107.561 77.1659 106.33 73.5688 108.603C72.6265 109.235 71.8385 110.072 71.2632 111.05C70.6879 112.028 70.3401 113.124 70.2453 114.255C70.1117 115.262 70.2049 116.287 70.5179 117.254C70.8309 118.221 71.356 119.106 72.0547 119.844C71.1715 128.468 71.1378 136.175 71.1049 143.631L71.1046 143.706L71.1507 143.767C78.3374 152.897 86.2316 161.979 93.8658 170.762L93.995 170.91Z" fill="#3F3D56"/>
<path d="M0.498779 277H119.701C119.833 277 119.96 276.947 120.054 276.854C120.147 276.76 120.2 276.633 120.2 276.501C120.2 276.369 120.147 276.242 120.054 276.149C119.96 276.055 119.833 276.002 119.701 276.002H0.498779C0.366501 276.002 0.239685 276.055 0.146149 276.149C0.0526123 276.242 3.05176e-05 276.369 3.05176e-05 276.501C3.05176e-05 276.633 0.0526123 276.76 0.146149 276.854C0.239685 276.947 0.366501 277 0.498779 277Z" fill="#3F3D56"/>
<path d="M520.232 241.242C520.232 241.723 520.232 242.203 520.202 242.678C520.13 244.526 519.908 246.365 519.537 248.177C517.702 257.146 512.403 264.118 505.747 266.176C504.423 266.589 503.045 266.799 501.658 266.799C491.399 266.799 483.084 255.347 483.084 241.242C483.084 227.137 491.399 215.685 501.658 215.685C511.28 215.685 519.196 225.757 520.137 238.659C520.202 239.508 520.232 240.371 520.232 241.242Z" fill="#36334A"/>
<path opacity="0.1" d="M520.201 242.68C520.13 244.528 519.908 246.368 519.537 248.18C517.701 257.148 512.403 264.12 505.747 266.178C500.594 263.807 496.77 254.919 496.77 244.317C496.77 231.898 502.021 221.832 508.501 221.832C513.939 221.832 518.514 228.932 519.841 238.566C520.025 239.887 520.145 241.267 520.201 242.68Z" fill="black"/>
<path d="M426.942 184.68C426.942 184.68 477.218 174.346 503.753 183.843C503.753 183.843 507.663 185.798 503.753 189.149C503.753 189.149 507.451 193.06 500.993 194.456L475.338 196.035L426.942 191.105V184.68Z" fill="#248271"/>
<path d="M435.74 185.98C435.74 185.98 478.785 177.131 501.504 185.262C501.504 185.262 504.856 186.938 501.504 189.806C501.504 189.806 504.669 193.158 499.141 194.351L477.176 195.7L435.74 191.485V185.98Z" fill="#3F3D56"/>
<path d="M484.759 201.44L481.408 194.736C481.408 194.736 482.877 187.954 470.933 185.96C470.271 183.002 467.272 180.771 463.671 180.771C460.157 180.771 457.219 182.893 456.459 185.742C454.744 185.89 452.918 186.091 450.962 186.357L448.231 201.004L447.89 200.322C447.89 200.322 449.625 192.312 433.991 191.141C434.844 190.108 435.313 188.813 435.321 187.474C435.321 183.924 432.006 181.05 427.919 181.05C423.833 181.05 420.517 183.924 420.517 187.474C420.528 188.932 421.082 190.334 422.07 191.407C420.609 191.546 419.067 191.725 417.445 191.943L414.373 208.422L428.617 210.378L451.242 207.026L449.239 203.018L462.135 204.789L484.759 201.44Z" fill="#248271"/>
<path opacity="0.2" d="M484.759 201.44L481.408 194.736C481.408 194.736 482.877 187.954 470.933 185.96C470.271 183.002 467.272 180.771 463.671 180.771C460.157 180.771 457.219 182.893 456.459 185.742C454.744 185.89 452.918 186.091 450.962 186.357L448.231 201.004L447.89 200.322C447.89 200.322 449.625 192.312 433.991 191.141C434.844 190.108 435.313 188.813 435.321 187.474C435.321 183.924 432.006 181.05 427.919 181.05C423.833 181.05 420.517 183.924 420.517 187.474C420.528 188.932 421.082 190.334 422.07 191.407C420.609 191.546 419.067 191.725 417.445 191.943L414.373 208.422L428.617 210.378L451.242 207.026L449.239 203.018L462.135 204.789L484.759 201.44Z" fill="black"/>
<path d="M436.712 186.603C436.712 186.603 434.478 174.067 444.812 173.788C455.147 173.508 451.795 191.943 451.795 191.943C451.795 191.943 459.616 193.619 460.174 196.691C460.733 199.764 433.081 200.602 433.081 200.602L436.712 186.603Z" fill="#248271"/>
<path d="M418.562 252.833C418.562 267.637 407.557 279.647 393.983 279.647C380.408 279.647 369.403 267.637 369.403 252.833C369.403 238.03 380.545 223.645 394.122 223.645C407.7 223.645 418.562 238.024 418.562 252.833Z" fill="#36334A"/>
<path opacity="0.1" d="M393.983 276.572C404.781 276.572 413.535 266.444 413.535 253.95C413.535 241.457 404.781 231.329 393.983 231.329C383.185 231.329 374.431 241.457 374.431 253.95C374.431 266.444 383.185 276.572 393.983 276.572Z" fill="#F2F2F2"/>
<path d="M285.889 277.131C299.464 277.131 310.468 265.126 310.468 250.317C310.468 235.508 299.464 223.503 285.889 223.503C272.314 223.503 261.309 235.508 261.309 250.317C261.309 265.126 272.314 277.131 285.889 277.131Z" fill="#36334A"/>
<path d="M327.786 186.357C327.786 186.357 316.334 186.916 316.893 193.06C317.451 199.205 326.669 194.736 326.669 194.736L327.786 186.357Z" fill="#F2F2F2"/>
<path d="M423.065 196.593L427.78 165.129C427.78 165.129 428.897 161.218 413.814 161.218C413.814 161.218 365.493 158.146 353.203 163.174C353.203 163.174 338.958 168.481 319.127 195.853C319.127 195.853 421.11 198.269 423.065 196.593Z" fill="#248271"/>
<path d="M421.356 163.732L412.697 198.088L407.267 197.957L381.57 197.331L324.258 195.934C324.099 193.219 351.24 165.129 351.24 165.129L421.356 163.732Z" fill="#36334A"/>
<path opacity="0.2" d="M381.579 197.33L383.919 188.281C383.919 188.281 381.685 175.742 392.019 175.463C402.354 175.184 399.002 193.618 399.002 193.618C399.002 193.618 406.125 195.146 407.259 197.956L381.579 197.33Z" fill="#248271"/>
<path d="M520.372 239.287C518.696 223.087 508.222 219.595 508.222 219.595C498.166 219.037 491.463 257.302 491.463 257.302L414.093 264.285C414.093 264.285 416.747 231.745 398.033 226.438C379.319 221.131 374.431 259.258 373.593 264.565C372.755 269.872 260.751 264.006 257.678 261.771C254.606 259.537 255.723 238.03 256.561 236.354C257.399 234.678 259.634 227.137 259.634 227.137C259.634 225.338 260.494 223.064 261.209 221.486C261.712 220.369 262.147 219.595 262.147 219.595C264.575 205.831 277.177 202.499 278.023 202.278H278.068C281.42 198.926 312.424 196.692 312.424 196.692L324.155 194.457L419.532 196.331L423.59 196.412L472.079 194.08L504.87 192.502C512.411 192.502 516.322 211.495 516.322 211.495C523.305 228.254 520.372 239.287 520.372 239.287Z" fill="#248271"/>
<path opacity="0.1" d="M363.132 222.837C370.499 219.872 374.966 213.73 373.11 209.118C371.254 204.505 363.777 203.17 356.41 206.134C349.043 209.099 344.575 215.241 346.431 219.853C348.287 224.466 355.764 225.802 363.132 222.837Z" fill="black"/>
<path d="M362.573 221.718C369.941 218.754 374.408 212.611 372.552 207.999C370.696 203.387 363.219 202.051 355.852 205.015C348.485 207.98 344.017 214.122 345.873 218.735C347.729 223.347 355.206 224.683 362.573 221.718Z" fill="#F2F2F2"/>
<path opacity="0.1" d="M278.582 202.848C278.439 205.92 277.062 209.797 274.585 213.531C270.599 219.542 265.133 223.081 261.767 222.045C262.27 220.928 262.706 220.154 262.706 220.154C265.133 206.389 277.736 203.057 278.582 202.848Z" fill="black"/>
<path d="M277.744 202.289C277.602 205.361 276.225 209.238 273.747 212.972C269.762 218.983 264.295 222.522 260.93 221.486C261.432 220.368 261.868 219.595 261.868 219.595C264.295 205.83 276.898 202.498 277.744 202.289Z" fill="#F2F2F2"/>
<path d="M316.893 210.654H294.827L293.71 207.582H320.524L316.893 210.654Z" fill="#36334A"/>
<path d="M311.865 233.279H275.554V243.893H311.865V233.279Z" fill="#36334A"/>
<path opacity="0.1" d="M350.969 254.227C353.745 254.227 355.996 251.976 355.996 249.2C355.996 246.423 353.745 244.172 350.969 244.172C348.192 244.172 345.941 246.423 345.941 249.2C345.941 251.976 348.192 254.227 350.969 254.227Z" fill="black"/>
<path d="M350.41 253.389C353.187 253.389 355.438 251.138 355.438 248.362C355.438 245.585 353.187 243.334 350.41 243.334C347.634 243.334 345.383 245.585 345.383 248.362C345.383 251.138 347.634 253.389 350.41 253.389Z" fill="#F2F2F2"/>
<path opacity="0.1" d="M259.634 250.596C261.022 250.596 262.147 248.22 262.147 245.289C262.147 242.358 261.022 239.982 259.634 239.982C258.245 239.982 257.12 242.358 257.12 245.289C257.12 248.22 258.245 250.596 259.634 250.596Z" fill="black"/>
<path d="M258.796 250.317C260.184 250.317 261.309 247.941 261.309 245.01C261.309 242.079 260.184 239.703 258.796 239.703C257.407 239.703 256.282 242.079 256.282 245.01C256.282 247.941 257.407 250.317 258.796 250.317Z" fill="#F2F2F2"/>
<path d="M480.29 222.667C477.218 232.164 476.939 246.967 476.939 246.967L475.821 250.878L421.355 257.023C421.355 257.023 421.635 229.65 422.473 216.802C423.062 207.738 420.875 200.065 419.531 196.331L423.59 196.412L472.079 194.08C480.179 199.758 483.047 214.14 480.29 222.667Z" fill="#36334A"/>
<path d="M467.872 205.546C467.682 205.558 467.496 205.611 467.327 205.699C467.157 205.788 467.008 205.911 466.89 206.061C466.771 206.211 466.684 206.383 466.636 206.568C466.588 206.753 466.579 206.946 466.61 207.135C466.636 207.293 466.701 207.442 466.799 207.569C466.896 207.696 467.023 207.797 467.169 207.864C468.071 208.314 474.076 207.305 476.352 206.903C476.689 206.848 476.999 206.684 477.232 206.435C477.466 206.185 477.61 205.866 477.643 205.526C477.671 205.129 477.525 204.792 476.945 204.792L467.872 205.546Z" fill="#F2F2F2"/>
<path d="M419.4 195.295C419.4 195.295 420.797 201.44 427.5 199.485L429.735 190.826L425.266 188.312L419.4 195.295Z" fill="#F2F2F2"/>
<path d="M427.609 182.818C430.682 180.997 435.556 179.405 440.377 183.228C441.38 184.021 442.088 185.127 442.386 186.371C442.685 187.614 442.556 188.921 442.022 190.083C440.444 193.499 436.698 197.205 427.953 192.767C427.094 192.331 426.362 191.683 425.824 190.884L425.78 190.817C425.357 190.177 425.068 189.458 424.931 188.703C424.794 187.949 424.811 187.174 424.982 186.426C425.153 185.678 425.474 184.973 425.926 184.353C426.377 183.732 426.95 183.21 427.609 182.818Z" fill="#F2F2F2"/>
<path d="M530.681 264.617C531.446 263.201 530.578 261.464 529.581 260.201C528.583 258.939 527.366 257.623 527.391 256.012C527.43 253.699 529.885 252.333 531.86 251.107C533.316 250.196 534.66 249.116 535.862 247.889C536.365 247.417 536.781 246.86 537.091 246.244C537.496 245.339 537.485 244.309 537.46 243.317C537.376 240.015 537.213 236.717 536.971 233.421" stroke="#3F3D56" stroke-width="4" stroke-miterlimit="10"/>
<path d="M540.686 233.242C540.659 232.637 540.479 232.049 540.164 231.532C539.849 231.015 539.409 230.586 538.885 230.284L538.077 231.882L538.103 229.946C537.717 229.833 537.314 229.785 536.913 229.804C536.2 229.837 535.513 230.081 534.939 230.505C534.364 230.928 533.929 231.513 533.687 232.184C533.445 232.855 533.407 233.584 533.579 234.276C533.75 234.969 534.123 235.595 534.651 236.076C535.178 236.556 535.837 236.87 536.542 236.977C537.248 237.083 537.969 236.978 538.615 236.675C539.261 236.372 539.803 235.884 540.171 235.273C540.54 234.661 540.719 233.955 540.686 233.242Z" fill="#248271"/>
<path d="M534.251 257.668C533.887 258.374 533.3 258.94 532.582 259.279C531.863 259.617 531.053 259.71 530.277 259.541C529.501 259.372 528.802 258.952 528.288 258.346C527.775 257.739 527.477 256.981 527.439 256.187C527.413 255.687 527.493 255.188 527.673 254.721C527.937 254.037 528.403 253.45 529.008 253.037C529.614 252.624 530.331 252.405 531.064 252.409C531.796 252.413 532.511 252.641 533.111 253.061C533.712 253.48 534.171 254.073 534.427 254.76L532.173 256.595L534.65 256.02C534.651 256.593 534.514 257.158 534.251 257.668Z" fill="#248271"/>
<path d="M532.469 250.66C531.995 250.682 531.522 250.611 531.076 250.45C530.63 250.289 530.22 250.042 529.87 249.723C529.519 249.403 529.235 249.018 529.034 248.589C528.832 248.16 528.717 247.695 528.695 247.222C528.668 246.657 528.775 246.094 529.008 245.579C529.225 245.098 529.545 244.669 529.945 244.324C530.345 243.978 530.815 243.724 531.324 243.579L531.307 245.068L532.123 243.448C533.078 243.404 534.013 243.742 534.72 244.386C535.427 245.031 535.849 245.931 535.893 246.886C535.915 247.303 535.863 247.72 535.74 248.118C535.521 248.826 535.09 249.45 534.505 249.905C533.92 250.36 533.209 250.623 532.469 250.66Z" fill="#248271"/>
<path d="M541.231 244.831C540.757 244.853 540.284 244.782 539.838 244.621C539.392 244.46 538.982 244.213 538.632 243.894C538.281 243.574 537.997 243.189 537.796 242.76C537.594 242.331 537.479 241.866 537.457 241.393C537.427 240.803 537.544 240.216 537.798 239.683C538.009 239.235 538.31 238.836 538.683 238.51C539.055 238.183 539.491 237.937 539.962 237.786C540.434 237.636 540.932 237.584 541.424 237.634C541.917 237.684 542.394 237.835 542.826 238.077L542.189 239.823L543.499 238.563C544.202 239.207 544.622 240.103 544.666 241.055C544.683 241.389 544.652 241.724 544.574 242.049C544.395 242.813 543.972 243.498 543.369 244C542.765 244.502 542.015 244.794 541.231 244.831Z" fill="#248271"/>
<path opacity="0.1" d="M540.203 234.203C539.365 234.295 538.558 234.552 537.723 234.605C536.888 234.658 535.969 234.457 535.441 233.806C535.195 233.429 534.972 233.037 534.773 232.633C534.545 232.278 534.233 231.983 533.865 231.776C533.58 232.332 533.447 232.953 533.477 233.577C533.516 234.454 533.874 235.286 534.482 235.918C535.09 236.55 535.908 236.939 536.782 237.012C537.657 237.085 538.528 236.837 539.232 236.314C539.937 235.792 540.427 235.03 540.611 234.172C540.474 234.178 540.337 234.189 540.203 234.203Z" fill="black"/>
<path opacity="0.1" d="M541.231 244.831C540.757 244.853 540.284 244.782 539.838 244.621C539.392 244.46 538.982 244.213 538.632 243.894C538.281 243.574 537.997 243.189 537.796 242.76C537.594 242.331 537.479 241.866 537.457 241.392C537.427 240.803 537.544 240.216 537.798 239.683C538.085 239.876 538.331 240.123 538.524 240.409C538.781 240.798 538.935 241.247 539.239 241.602C539.798 242.261 540.762 242.479 541.633 242.44C542.504 242.401 543.342 242.161 544.211 242.074C544.331 242.074 544.454 242.054 544.574 242.052C544.395 242.815 543.971 243.5 543.368 244.001C542.765 244.503 542.014 244.794 541.231 244.831Z" fill="black"/>
<path opacity="0.1" d="M532.469 250.66C531.995 250.682 531.522 250.611 531.076 250.45C530.63 250.289 530.22 250.042 529.87 249.723C529.519 249.404 529.235 249.018 529.034 248.589C528.832 248.16 528.717 247.696 528.695 247.222C528.668 246.657 528.775 246.094 529.008 245.58C529.301 245.777 529.556 246.025 529.762 246.311C530.042 246.708 530.218 247.149 530.544 247.529C531.153 248.208 532.178 248.445 533.1 248.426C534.022 248.406 534.854 248.186 535.742 248.119C535.524 248.827 535.093 249.451 534.507 249.906C533.921 250.361 533.21 250.624 532.469 250.66Z" fill="black"/>
<path opacity="0.1" d="M534.251 257.668C533.887 258.375 533.3 258.941 532.582 259.28C531.863 259.618 531.053 259.71 530.277 259.542C529.501 259.373 528.802 258.953 528.288 258.347C527.775 257.74 527.477 256.982 527.439 256.188C527.413 255.688 527.493 255.189 527.673 254.722C527.97 254.917 528.236 255.155 528.464 255.428C528.807 255.847 529.022 256.322 529.43 256.71C530.167 257.437 531.36 257.735 532.419 257.763C533.031 257.767 533.643 257.735 534.251 257.668Z" fill="black"/>
<path d="M525.24 262.986C525.24 262.986 528.086 262.9 528.947 262.288C529.807 261.676 533.326 260.947 533.541 261.928C533.756 262.908 537.82 266.805 534.606 266.83C531.391 266.855 527.134 266.33 526.276 265.807C525.419 265.285 525.24 262.986 525.24 262.986Z" fill="#656380"/>
<path opacity="0.2" d="M534.661 266.489C531.447 266.514 527.19 265.986 526.332 265.466C525.682 265.067 525.422 263.643 525.335 262.983H525.24C525.24 262.983 525.419 265.282 526.276 265.804C527.134 266.327 531.391 266.852 534.606 266.827C535.533 266.827 535.854 266.489 535.837 265.989C535.709 266.299 535.349 266.483 534.661 266.489Z" fill="black"/>
<path d="M394.537 234.482C388.022 234.482 382.741 243.236 382.741 254.034C382.741 264.832 388.022 273.586 394.537 273.586C401.052 273.586 406.334 264.832 406.334 254.034C406.334 243.236 401.052 234.482 394.537 234.482ZM387.49 255.502C385.587 255.648 383.995 255.125 383.934 254.332C383.873 253.539 385.365 252.778 387.268 252.631C389.171 252.484 390.763 253.007 390.824 253.8C390.885 254.593 389.393 255.355 387.49 255.502ZM394.544 270.419C393.319 270.419 392.325 268.034 392.325 265.092C392.325 262.151 393.319 259.766 394.544 259.766C395.77 259.766 396.764 262.151 396.764 265.092C396.764 268.034 395.77 270.419 394.544 270.419ZM392.79 254.144C392.79 252.985 393.572 252.046 394.537 252.046C395.503 252.046 396.285 252.985 396.285 254.144C396.285 255.302 395.503 256.241 394.537 256.241C393.572 256.241 392.79 255.302 392.79 254.144ZM394.544 248.521C393.319 248.521 392.325 246.137 392.325 243.195C392.325 240.253 393.319 237.868 394.544 237.868C395.77 237.868 396.764 240.253 396.764 243.195C396.764 246.137 395.77 248.521 394.544 248.521ZM402.025 255.065C400.123 255.212 398.53 254.688 398.469 253.895C398.408 253.103 399.901 252.341 401.803 252.194C403.706 252.047 405.298 252.57 405.359 253.363C405.421 254.156 403.928 254.918 402.025 255.065Z" fill="#E4E4E4"/>
<path d="M508.545 226.103C502.774 226.103 498.097 233.856 498.097 243.42C498.097 252.983 502.774 260.736 508.545 260.736C514.315 260.736 518.993 252.983 518.993 243.42C518.993 233.856 514.315 226.103 508.545 226.103ZM502.303 244.719C500.618 244.849 499.208 244.386 499.153 243.684C499.099 242.981 500.421 242.307 502.106 242.177C503.792 242.046 505.202 242.51 505.256 243.212C505.31 243.914 503.988 244.589 502.303 244.719ZM508.551 257.931C507.465 257.931 506.585 255.819 506.585 253.213C506.585 250.608 507.465 248.496 508.551 248.496C509.636 248.496 510.517 250.608 510.517 253.213C510.517 255.819 509.636 257.931 508.551 257.931ZM506.997 243.516C506.997 242.491 507.69 241.659 508.545 241.659C509.4 241.659 510.093 242.491 510.093 243.516C510.093 244.542 509.4 245.374 508.545 245.374C507.69 245.374 506.997 244.542 506.997 243.516ZM508.551 238.537C507.465 238.537 506.585 236.425 506.585 233.819C506.585 231.214 507.465 229.102 508.551 229.102C509.636 229.102 510.517 231.214 510.517 233.819C510.517 236.425 509.636 238.537 508.551 238.537ZM515.177 244.332C513.491 244.462 512.081 243.999 512.027 243.297C511.973 242.594 513.295 241.92 514.98 241.79C516.665 241.659 518.075 242.123 518.129 242.825C518.184 243.527 516.862 244.202 515.177 244.332Z" fill="#E4E4E4"/>
<rect x="560" y="244" width="50" height="5" rx="2.5" fill="#248271"/>
<rect x="591" y="258" width="50" height="5" rx="2.5" fill="#248271"/>
<rect x="569" y="258" width="5" height="5" rx="2.5" fill="#248271"/>
<rect x="627" y="244" width="5" height="5" rx="2.5" fill="#248271"/>
<rect x="579" y="258" width="7" height="5" rx="2.5" fill="#248271"/>
<rect x="615" y="244" width="7" height="5" rx="2.5" fill="#248271"/>
</svg>
