<svg width="20" height="20" viewBox="0 0 20 20" fill="none" xmlns="http://www.w3.org/2000/svg">
<g opacity="0.4">
<path d="M2.5 9C3.88071 9 5 7.88071 5 6.5C5 5.11929 3.88071 4 2.5 4C1.11929 4 0 5.11929 0 6.5C0 7.88071 1.11929 9 2.5 9Z" fill="#575757"/>
<path d="M7 5C8.38071 5 9.5 3.88071 9.5 2.5C9.5 1.11929 8.38071 0 7 0C5.61929 0 4.5 1.11929 4.5 2.5C4.5 3.88071 5.61929 5 7 5Z" fill="#575757"/>
<path d="M13 5C14.3807 5 15.5 3.88071 15.5 2.5C15.5 1.11929 14.3807 0 13 0C11.6193 0 10.5 1.11929 10.5 2.5C10.5 3.88071 11.6193 5 13 5Z" fill="#575757"/>
<path d="M17.5 9C18.8807 9 20 7.88071 20 6.5C20 5.11929 18.8807 4 17.5 4C16.1193 4 15 5.11929 15 6.5C15 7.88071 16.1193 9 17.5 9Z" fill="#575757"/>
<path d="M15.34 11.86C14.47 10.84 13.74 9.97 12.86 8.95C12.4 8.41 11.81 7.87 11.11 7.63C11 7.59 10.89 7.56 10.78 7.54C10.53 7.5 10.26 7.5 10 7.5C9.74 7.5 9.47 7.5 9.21 7.55C9.1 7.57 8.99 7.6 8.88 7.64C8.18 7.88 7.6 8.42 7.13 8.96C6.26 9.98 5.53 10.85 4.65 11.87C3.34 13.18 1.73 14.63 2.03 16.66C2.32 17.68 3.05 18.69 4.36 18.98C5.09 19.13 7.42 18.54 9.9 18.54H10.08C12.56 18.54 14.89 19.12 15.62 18.98C16.93 18.69 17.66 17.67 17.95 16.66C18.26 14.62 16.65 13.17 15.34 11.86Z" fill="#575757"/>
</g>
</svg>
