<svg width="14" height="10" viewBox="0 0 14 10" fill="none" xmlns="http://www.w3.org/2000/svg">
<path d="M11.6666 1.66667C11.6666 0.933336 11.0666 0.333336 10.3333 0.333336H8.33325V1.66667H10.3333V3.43334L8.01325 6.33334H5.66659V3H2.99992C1.52659 3 0.333252 4.19334 0.333252 5.66667V7.66667H1.66659C1.66659 8.77334 2.55992 9.66667 3.66659 9.66667C4.77325 9.66667 5.66659 8.77334 5.66659 7.66667H8.65325L11.6666 3.9V1.66667ZM1.66659 6.33334V5.66667C1.66659 4.93334 2.26659 4.33334 2.99992 4.33334H4.33325V6.33334H1.66659ZM3.66659 8.33334C3.29992 8.33334 2.99992 8.03334 2.99992 7.66667H4.33325C4.33325 8.03334 4.03325 8.33334 3.66659 8.33334Z" fill="#606060"/>
<path d="M5.66658 1H2.33325V2.33333H5.66658V1Z" fill="#606060"/>
<path d="M11.6665 5.66667C10.5598 5.66667 9.6665 6.56001 9.6665 7.66667C9.6665 8.77334 10.5598 9.66667 11.6665 9.66667C12.7732 9.66667 13.6665 8.77334 13.6665 7.66667C13.6665 6.56001 12.7732 5.66667 11.6665 5.66667ZM11.6665 8.33334C11.2998 8.33334 10.9998 8.03334 10.9998 7.66667C10.9998 7.30001 11.2998 7.00001 11.6665 7.00001C12.0332 7.00001 12.3332 7.30001 12.3332 7.66667C12.3332 8.03334 12.0332 8.33334 11.6665 8.33334Z" fill="#606060"/>
</svg>
